<svg xmlns="http://www.w3.org/2000/svg" width="219" height="20" viewBox="0 0 219 20">
  <defs>
    <style>
      .cls-1 {
        fill: #ff4299;
      }

      .cls-1, .cls-2 {
        fill-rule: evenodd;
      }

      .cls-2 {
        fill: #fff;
      }
    </style>
  </defs>
  <path id="documentation_copy" data-name="documentation copy" class="cls-1" d="M63.847,17.047a5.01,5.01,0,0,0,1.4-1.276l0.308,1.562H68.06V1.493H65.244V7.917a3.888,3.888,0,0,0-1.5-1.3,4.764,4.764,0,0,0-2.156-.462,5.181,5.181,0,0,0-2.75.737,5.3,5.3,0,0,0-1.914,2.024,6.018,6.018,0,0,0-.7,2.937,6.081,6.081,0,0,0,.7,2.948,5.353,5.353,0,0,0,1.914,2.046,5.123,5.123,0,0,0,2.75.748A4.16,4.16,0,0,0,63.847,17.047Zm-3.883-2.838a3.274,3.274,0,0,1-.88-2.354,3.2,3.2,0,0,1,.88-2.332,3.188,3.188,0,0,1,4.455.011,3.261,3.261,0,0,1,.869,2.343,3.26,3.26,0,0,1-.869,2.343A3.16,3.16,0,0,1,59.964,14.209Zm19.03,2.662a5.311,5.311,0,0,0,2.013-2.013,5.893,5.893,0,0,0,.737-2.981A5.894,5.894,0,0,0,81.007,8.9a5.333,5.333,0,0,0-2-2.013,5.91,5.91,0,0,0-5.676,0A5.407,5.407,0,0,0,71.316,8.9a5.823,5.823,0,0,0-.748,2.981,5.889,5.889,0,0,0,.737,2.981,5.327,5.327,0,0,0,2,2.013A5.932,5.932,0,0,0,78.994,16.871ZM74.253,14.33a3.383,3.383,0,0,1-.8-2.453,3.384,3.384,0,0,1,.8-2.453,2.62,2.62,0,0,1,3.817,0,3.358,3.358,0,0,1,.814,2.453,3.357,3.357,0,0,1-.814,2.453,2.6,2.6,0,0,1-1.914.825A2.566,2.566,0,0,1,74.253,14.33Zm18.865,2.145a4.977,4.977,0,0,0,1.826-2.97h-2.97a2.128,2.128,0,0,1-.869,1.254,2.658,2.658,0,0,1-1.529.44,2.6,2.6,0,0,1-1.98-.88,3.458,3.458,0,0,1-.814-2.442A3.459,3.459,0,0,1,87.6,9.435,2.727,2.727,0,0,1,91.1,9.006a2.173,2.173,0,0,1,.869,1.243h2.97a4.869,4.869,0,0,0-1.826-3A5.641,5.641,0,0,0,89.6,6.157a5.856,5.856,0,0,0-2.948.726,5.284,5.284,0,0,0-2.013,2.024,5.907,5.907,0,0,0-.737,2.97,5.906,5.906,0,0,0,.737,2.97,5.281,5.281,0,0,0,2.013,2.024A5.856,5.856,0,0,0,89.6,17.6,5.528,5.528,0,0,0,93.118,16.475Zm10.658,0.55a3.832,3.832,0,0,0,1.463-1.54l0.22,1.848h2.486V6.421h-2.816v5.632a3.343,3.343,0,0,1-.759,2.332,2.486,2.486,0,0,1-1.925.836,2.127,2.127,0,0,1-1.8-.748,3.5,3.5,0,0,1-.572-2.156v-5.9H97.275v6.16a5.541,5.541,0,0,0,1.111,3.74,3.96,3.96,0,0,0,3.157,1.276A4.269,4.269,0,0,0,103.776,17.025Zm9.867,0.308V11.7a3.553,3.553,0,0,1,.693-2.332,2.244,2.244,0,0,1,1.815-.836,1.966,1.966,0,0,1,1.694.748,3.605,3.605,0,0,1,.55,2.156v5.9h2.816V11.7a3.553,3.553,0,0,1,.693-2.332,2.267,2.267,0,0,1,1.837-.836,1.911,1.911,0,0,1,1.661.748,3.659,3.659,0,0,1,.539,2.156v5.9h2.816v-6.16a5.438,5.438,0,0,0-1.144-3.74,4.176,4.176,0,0,0-3.278-1.276,4.619,4.619,0,0,0-2.189.528,4.235,4.235,0,0,0-1.595,1.43,3.741,3.741,0,0,0-3.586-1.958,4.144,4.144,0,0,0-2.013.473,3.871,3.871,0,0,0-1.4,1.265l-0.242-1.474h-2.486V17.333h2.816Zm25.465-.22a5.048,5.048,0,0,0,1.76-1.331,5.2,5.2,0,0,0,1.023-1.881h-2.86a2.39,2.39,0,0,1-.869,1,2.559,2.559,0,0,1-1.441.385,2.8,2.8,0,0,1-1.947-.726,2.836,2.836,0,0,1-.891-2h8.294q0.021-.286.033-0.55c0.007-.176.011-0.344,0.011-0.506a5.407,5.407,0,0,0-.693-2.717A5.06,5.06,0,0,0,139.6,6.861a5.623,5.623,0,0,0-2.838-.7,5.817,5.817,0,0,0-2.981.737,5.184,5.184,0,0,0-1.98,2.057,6.223,6.223,0,0,0-.715,3.014,5.856,5.856,0,0,0,.726,2.948,5.091,5.091,0,0,0,2,1.98,5.955,5.955,0,0,0,2.926.7A5.568,5.568,0,0,0,139.108,17.113Zm-0.539-8.03a2.376,2.376,0,0,1,.792,1.716h-5.434a2.7,2.7,0,0,1,1.012-1.771,3,3,0,0,1,1.826-.583A2.636,2.636,0,0,1,138.569,9.083Zm8.844,8.25V11.7a3.344,3.344,0,0,1,.759-2.332,2.512,2.512,0,0,1,1.947-.836,2.1,2.1,0,0,1,1.782.748,3.5,3.5,0,0,1,.572,2.156v5.9h2.816v-6.16a5.506,5.506,0,0,0-1.122-3.74,3.97,3.97,0,0,0-3.146-1.276,4.312,4.312,0,0,0-2.255.572,3.837,3.837,0,0,0-1.463,1.54l-0.22-1.848H144.6V17.333h2.816Zm17.335,0v-2.4h-1.364a1.806,1.806,0,0,1-1.177-.3,1.4,1.4,0,0,1-.341-1.089V8.775h2.948V6.421h-2.948V3.5H159.38l-0.33,2.926h-1.87V8.775h1.87v4.752a3.637,3.637,0,0,0,1.034,2.97,4.243,4.243,0,0,0,2.75.836h1.914Zm8.481-.308a4.071,4.071,0,0,0,1.353-1.452l0.264,1.76h2.4v-6.71a4.137,4.137,0,0,0-1.342-3.3,5.414,5.414,0,0,0-3.674-1.166,6.179,6.179,0,0,0-2.464.473,4.5,4.5,0,0,0-1.793,1.353,3.836,3.836,0,0,0-.8,2.068h2.75a1.755,1.755,0,0,1,.792-1.2,2.721,2.721,0,0,1,1.5-.407,2.4,2.4,0,0,1,1.584.528,2.021,2.021,0,0,1,.638,1.65v0.264h-2.772a5.651,5.651,0,0,0-3.564.946A3,3,0,0,0,166.9,14.3a3.2,3.2,0,0,0,.44,1.65,3.118,3.118,0,0,0,1.342,1.2A5.163,5.163,0,0,0,171,17.6,3.989,3.989,0,0,0,173.229,17.025Zm-2.871-1.98a1.152,1.152,0,0,1-.484-0.99,1.259,1.259,0,0,1,.484-1,2.5,2.5,0,0,1,1.606-.407h2.4a3.845,3.845,0,0,1-.847,1.958,2.33,2.33,0,0,1-1.881.792A2.12,2.12,0,0,1,170.358,15.045Zm16.192,2.288v-2.4h-1.364a1.806,1.806,0,0,1-1.177-.3,1.4,1.4,0,0,1-.341-1.089V8.775h2.948V6.421h-2.948V3.5h-2.486l-0.33,2.926h-1.87V8.775h1.87v4.752a3.637,3.637,0,0,0,1.034,2.97,4.243,4.243,0,0,0,2.75.836h1.914Zm5.269-13.068a1.526,1.526,0,0,0,.5-1.166,1.493,1.493,0,0,0-.5-1.155,2,2,0,0,0-2.53,0,1.493,1.493,0,0,0-.495,1.155,1.526,1.526,0,0,0,.495,1.166A1.963,1.963,0,0,0,191.819,4.265Zm0.143,13.068V6.421h-2.816V17.333h2.816Zm11.022-.462A5.3,5.3,0,0,0,205,14.858a5.9,5.9,0,0,0,.737-2.981A5.9,5.9,0,0,0,205,8.9a5.33,5.33,0,0,0-2-2.013,5.91,5.91,0,0,0-5.676,0A5.416,5.416,0,0,0,195.306,8.9a5.821,5.821,0,0,0-.748,2.981,5.9,5.9,0,0,0,.737,2.981,5.33,5.33,0,0,0,2,2.013A5.932,5.932,0,0,0,202.984,16.871Zm-4.741-2.541a3.386,3.386,0,0,1-.8-2.453,3.386,3.386,0,0,1,.8-2.453,2.62,2.62,0,0,1,3.817,0,3.355,3.355,0,0,1,.814,2.453,3.354,3.354,0,0,1-.814,2.453,2.6,2.6,0,0,1-1.914.825A2.567,2.567,0,0,1,198.243,14.33Zm12.815,3V11.7a3.344,3.344,0,0,1,.759-2.332,2.512,2.512,0,0,1,1.947-.836,2.1,2.1,0,0,1,1.782.748,3.5,3.5,0,0,1,.572,2.156v5.9h2.816v-6.16a5.506,5.506,0,0,0-1.122-3.74,3.97,3.97,0,0,0-3.146-1.276,4.312,4.312,0,0,0-2.255.572,3.837,3.837,0,0,0-1.463,1.54l-0.22-1.848h-2.486V17.333h2.816Z"/>
  <path id="omc_copy" data-name="omc/ copy" class="cls-2" d="M8.967,16.871a5.31,5.31,0,0,0,2.013-2.013,5.893,5.893,0,0,0,.737-2.981A5.894,5.894,0,0,0,10.98,8.9a5.333,5.333,0,0,0-2-2.013,5.578,5.578,0,0,0-2.827-.726A5.62,5.62,0,0,0,3.3,6.883,5.408,5.408,0,0,0,1.289,8.9a5.823,5.823,0,0,0-.748,2.981,5.89,5.89,0,0,0,.737,2.981,5.328,5.328,0,0,0,2,2.013,5.62,5.62,0,0,0,2.849.726A5.638,5.638,0,0,0,8.967,16.871ZM4.226,14.33a3.383,3.383,0,0,1-.8-2.453,3.384,3.384,0,0,1,.8-2.453,2.62,2.62,0,0,1,3.817,0,3.357,3.357,0,0,1,.814,2.453,3.357,3.357,0,0,1-.814,2.453,2.6,2.6,0,0,1-1.914.825A2.567,2.567,0,0,1,4.226,14.33Zm12.815,3V11.7a3.553,3.553,0,0,1,.693-2.332,2.244,2.244,0,0,1,1.815-.836,1.965,1.965,0,0,1,1.694.748,3.6,3.6,0,0,1,.55,2.156v5.9h2.816V11.7A3.553,3.553,0,0,1,25.3,9.369a2.267,2.267,0,0,1,1.837-.836,1.911,1.911,0,0,1,1.661.748,3.657,3.657,0,0,1,.539,2.156v5.9h2.816v-6.16a5.436,5.436,0,0,0-1.144-3.74,4.175,4.175,0,0,0-3.278-1.276,4.619,4.619,0,0,0-2.189.528,4.238,4.238,0,0,0-1.6,1.43,3.74,3.74,0,0,0-3.586-1.958,4.145,4.145,0,0,0-2.013.473,3.874,3.874,0,0,0-1.4,1.265L16.711,6.421H14.225V17.333h2.816ZM43.7,16.475a4.977,4.977,0,0,0,1.826-2.97h-2.97a2.128,2.128,0,0,1-.869,1.254,2.658,2.658,0,0,1-1.529.44,2.6,2.6,0,0,1-1.98-.88,3.458,3.458,0,0,1-.814-2.442,3.459,3.459,0,0,1,.814-2.442,2.727,2.727,0,0,1,3.509-.429,2.173,2.173,0,0,1,.869,1.243h2.97a4.869,4.869,0,0,0-1.826-3,5.641,5.641,0,0,0-3.52-1.089,5.856,5.856,0,0,0-2.948.726,5.284,5.284,0,0,0-2.013,2.024,5.907,5.907,0,0,0-.737,2.97,5.906,5.906,0,0,0,.737,2.97,5.281,5.281,0,0,0,2.013,2.024,5.856,5.856,0,0,0,2.948.726A5.528,5.528,0,0,0,43.7,16.475Zm6.138,3.3L55.365,0.239h-2.75l-5.5,19.536h2.728Z"/>
</svg>
