<svg xmlns="http://www.w3.org/2000/svg" viewBox="0 0 1440 320"><path fill="#30dfe5" fill-opacity="1" d="M0,192L18.5,181.3C36.9,171,74,149,111,154.7C147.7,160,185,192,222,192C258.5,192,295,160,332,128C369.2,96,406,64,443,90.7C480,117,517,203,554,197.3C590.8,192,628,96,665,74.7C701.5,53,738,107,775,117.3C812.3,128,849,96,886,101.3C923.1,107,960,149,997,176C1033.8,203,1071,213,1108,208C1144.6,203,1182,181,1218,149.3C1255.4,117,1292,75,1329,53.3C1366.2,32,1403,32,1422,32L1440,32L1440,0L1421.5,0C1403.1,0,1366,0,1329,0C1292.3,0,1255,0,1218,0C1181.5,0,1145,0,1108,0C1070.8,0,1034,0,997,0C960,0,923,0,886,0C849.2,0,812,0,775,0C738.5,0,702,0,665,0C627.7,0,591,0,554,0C516.9,0,480,0,443,0C406.2,0,369,0,332,0C295.4,0,258,0,222,0C184.6,0,148,0,111,0C73.8,0,37,0,18,0L0,0Z"></path></svg>