<svg xmlns="http://www.w3.org/2000/svg" width="165" height="165" viewBox="0 0 165 165">
  <defs>
    <style>
      .cls-1 {
        fill: #e1e1e1;
      }

      .cls-2 {
        fill: #999;
        fill-rule: evenodd;
      }
    </style>
  </defs>
  <circle class="cls-1" cx="82.5" cy="82.5" r="82.5"/>
  <path id="Color_Fill_2" data-name="Color Fill 2" class="cls-2" d="M64.212,89.055c-0.31-1.243-.344-1.865,1.1-3.315s3.785-1.727,4.4-1.1S76.7,92.37,81.828,92.37s10.735-6.906,12.111-7.735,3.475,0.173,4.4,1.1a3.465,3.465,0,0,1,1.1,3.315A20.406,20.406,0,0,1,81.828,99C70.233,99,64.521,90.3,64.212,89.055Z"/>
  <path id="Polygon_1" data-name="Polygon 1" class="cls-2" d="M40.589,86.357q-2.336-4.171-4.768-8.287t2.336-4.061q4.768,0.055,9.535,0t2.336,4.061q-2.431,4.116-4.768,8.287T40.589,86.357Z"/>
  <path id="Polygon_1_copy" data-name="Polygon 1 copy" class="cls-2" d="M118.762,86.357q-2.337-4.171-4.768-8.287t2.336-4.061q4.769,0.055,9.535,0T128.2,78.07q-2.431,4.116-4.768,8.287T118.762,86.357Z"/>
</svg>
